<svg xmlns="http://www.w3.org/2000/svg" viewBox="0 0 200 200" width="200" height="200">
<!-- EmojiOne 2.2.7 (CC-BY 4.0) -->
<svg x="24" y="24" width="152" height="152" viewBox="0 0 64 64"><path d="m58.9 47.5h-40.5c0-7.4 5.7-18.7 5.7-18.7-.1-.5.5-1.2 1.1-1.2l12.7-5.9c.3-.4 1.3-.3 1.5 0l12.7 5.9c.6 0 1.2.7 1.1 1.2 0 0 5.7 11.4 5.7 18.7" fill="#7d593e"/><g fill="#64892f"><path d="m35.7 57.6c0 0-6.8 1.2-8.4 0-2.2-1.7 1.3-9.6 3.5-11.3 0 0 4.6-.4 6.1 1-.1-.1-2.4 6.4-1.2 10.3"/><path d="m48.3 58.1c0 0-5.4-.3-6.4-1.6-1.4-1.7 2.5-7.1 4.5-8 0 0 3.6.6 4.5 1.9 0 0-2.8 4.5-2.6 7.7"/></g><path d="m5.7 20.1c0 0 8.5-8.5 10.2-1.7.1-.1-7.3 8.6-10.2 1.7" fill="#4b662b"/><g fill="#83bf4f"><path d="m24.6 8.6c-5.9-6.4-29.4-.1-20.7 9.9 0 0 3.8-2 10.9-1.9-5.6 5-9.1 3.4-9.1 3.4 0 3.2 1.5 5.8 7.4 5.8 7.3 0-.6 19.8 5.9 19.8 3.8 0 4.6-15.7 4.9-16.6 1.5-5 4.6-16.1.7-20.4"/><path d="m60.9 44.4c1.2 1.6 1.3 5.6.9 6.5-.4.8-1-1.1-1.8-2.9-1.4-3.1-4.1-3.7-2.2-4.9.8-.6 2.5.5 3.1 1.3"/></g><g fill="#c1875d"><path d="m38.6 28.9l-9.4 3.9-1.8 10.1h22.5l-1.8-10.1z"/><path d="m52.1 27.6c-3.6-3.6-7.8-5.8-12.7-5.9v6.1l9.2 3.5 3.5-3.7"/><path d="m37.9 27.7v-6.1c-4.9.1-9.1 2.3-12.7 5.9l3.5 3.7 9.2-3.5"/><path d="m53.2 28.8l-3.9 4 2 10.1h8.5c-1-5.5-3.4-10.4-6.6-14.1"/><path d="m28 32.8l-3.9-4c-1.6 1.8-3 4.9-5.1 5.6-2.4.8-1 8.6 7 8.6l2-10.2"/></g><path d="m17.5 45.1h42.3c0 5.6-4.8 7.8-21.2 7.8s-21.1-2.2-21.1-7.8" fill="#ffd93b"/><g fill="#af921b"><path d="m30.1 45.1c.1.8.3 1.5.5 2.2.2.7.5 1.4.9 2 .4.6.8 1.2 1.3 1.8.5.6 1.1 1.1 1.6 1.7-.8-.2-1.5-.7-2.2-1.2-.6-.5-1.2-1.2-1.6-1.9-.4-.7-.7-1.5-.8-2.3 0-.7 0-1.5.3-2.3"/><path d="m47.2 45.1c.3.7.3 1.6.2 2.4-.1.8-.4 1.6-.8 2.3-.4.7-1 1.4-1.6 1.9-.6.5-1.4.9-2.2 1.2.6-.6 1.1-1.1 1.6-1.7.5-.6.9-1.2 1.3-1.8.4-.6.7-1.3.9-2 .3-.8.5-1.5.6-2.3"/></g><circle cx="14.7" cy="11.4" r="2.6" fill="#3e4347"/><path fill="#4b662b" d="m4.6 12l-.7.3.3-.8.7-.4z"/><path d="m29.8 60.9c0 0-8.9 1.9-11.1 0-2.9-2.6 1.7-14.7 4.6-17.3 0 0 6.1-.6 8.1 1.5-.1 0-3.1 9.9-1.6 15.8" fill="#83bf4f"/><path d="m21.5 60.9c-1.1-2.8-2.9-4.7-3.4-4.7-.6 0-1.8 1.7-1.8 5 .1 1.1 5.8 1.1 5.2-.3" fill="#6ea03f"/><path d="m61.5 52c0 0-4.6 7.9-6.9 7.8-3.1-.2-9.8-7.5-7.2-15.8 0 0 5.6-.8 7.9-.4 0-.1-1.6 7 6.2 8.4" fill="#83bf4f"/><path d="m56.6 58.2c-2-1.3-4.1-1.7-4.4-1.4-.4.3-.5 2.1 1 4.4.5.7 4.4-2.3 3.4-3" fill="#6ea03f"/></svg>
<svg x="126" y="128" width="62" height="62" viewBox="0 0 64 64"><path transform="matrix(.7072-.707.707.7072-17.5441 42.3457)" fill="#b0bdc6" d="m39.7 40.3h5.4v4.1h-5.4z"/><path transform="matrix(.7069-.7073.7073.7069-17.5421 42.3708)" fill="#dfe9ef" d="m41 40.3h2.8v4.1h-2.8z"/><path transform="matrix(.707-.7072.7072.707-17.1888 41.5085)" fill="#b0bdc6" d="m38.8 40.6h5.4v1.7h-5.4z"/><path d="m41.5 8.8c-9-9-23.7-9-32.8 0s-9 23.7 0 32.8c9 9 23.7 9 32.8 0 9.1-9.1 9.1-23.8 0-32.8m-2.1 30.6c-7.9 7.9-20.6 7.9-28.4 0-7.9-7.9-7.9-20.6 0-28.4 7.9-7.9 20.6-7.9 28.4 0 7.8 7.8 7.8 20.5 0 28.4" fill="#dfe9ef"/><path d="m39.9 10.4c-8.1-8.1-21.3-8.1-29.5 0-8.1 8.1-8.1 21.3 0 29.5 8.1 8.1 21.3 8.1 29.5 0 8.1-8.1 8.1-21.3 0-29.5m-1.1 28.4c-7.5 7.5-19.8 7.5-27.3 0s-7.5-19.8 0-27.3c7.5-7.5 19.8-7.5 27.3 0 7.5 7.5 7.5 19.8 0 27.3" fill="#b0bdc6"/><path d="m36.1 29.8c-6.5 6.5-17.1 6.5-23.6 0-1.7-1.7-3-3.7-3.8-5.9-.4 4.8 1.2 9.7 4.8 13.3 6.5 6.5 17.1 6.5 23.6 0 4.8-4.8 6-11.8 3.8-17.7-.4 3.8-2 7.4-4.8 10.3" opacity=".6" fill="#a6aeb0"/><path transform="matrix(.7071-.7071.7071.7071-20.7885 50.1891)" fill="#333" d="m45.3 40.5h9.8v19.5h-9.8z"/><path transform="matrix(.707-.7072.7072.707-20.7875 50.198)" fill="#575b5e" d="m47.5 40.5h5.4v19.5h-5.4z"/><path d="m61.9 52.9c1.1 1.1-7.8 10.1-9 9l-.7-.7c-1.1-1.1 7.8-10.1 9-9l.7.7" fill="#b0bdc6"/><path d="m60.4 54.4c1.1 1.1-4.8 7.1-6 6l-.7-.7c-1.1-1.1 4.8-7.1 6-6l.7.7" fill="#dfe9ef"/></svg>
</svg>