<svg xmlns="http://www.w3.org/2000/svg" viewBox="0 0 200 200" width="200" height="200">
<!-- EmojiOne 2.2.7 (CC-BY 4.0) -->
<svg x="24" y="24" width="152" height="152" viewBox="0 0 64 64"><g fill="#c7e755"><ellipse cx="32" cy="33.5" rx="22.3" ry="25.9"/><path d="m52 43.5h-40l20-27.4z"/></g><g fill="#a3bf2c"><path d="m47.1 51l-3.8 4.2-3.8-4.2 3.8-4.3z"/><path d="m32 51l-3.8 4.2-3.7-4.2 3.7-4.3z"/><path d="m24.5 51l-3.8 4.2-3.8-4.2 3.8-4.3z"/><path d="m39.5 51l-3.7 4.2-3.8-4.2 3.8-4.3z"/></g><g fill="#c7e755"><path d="m43.3 46.7l-3.8 4.3-3.7-4.3 3.7-4.3z"/><path d="m50.8 46.7l-3.7 4.3-3.8-4.3 3.8-4.3z"/><path d="m28.2 46.7l-3.7 4.3-3.8-4.3 3.8-4.3z"/><path d="m20.7 46.7l-3.8 4.3-3.7-4.3 3.7-4.3z"/><path d="M35.8 46.7 32 51 28.2 46.7 32 42.4z"/></g><g fill="#a3bf2c"><path d="m47.1 42.4l-3.8 4.3-3.8-4.3 3.8-4.2z"/><path d="m32 42.4l-3.8 4.3-3.7-4.3 3.7-4.2z"/><path d="m24.5 42.4l-3.8 4.3-3.8-4.3 3.8-4.2z"/><path d="m39.5 42.4l-3.7 4.3-3.8-4.3 3.8-4.2z"/></g><g fill="#c28fef"><path d="M7,30c0,0-1.5,17,11.1,24.5c4.1,2.4-2.5-3.6-0.8-18.4L7,30z"/><path d="m57 30c0 0 1.5 17-11.1 24.5-4.1 2.4 2.5-3.6.8-18.4l10.3-6.1"/></g><g fill="#9450e0"><path d="m32 2c-7.1 7-15 .9-15 .9 4.9 8.8 15 10.4 15 10.4s10.1-1.6 15-10.4c0 0-7.9 6.1-15-.9"/><path d="M18.8,39.4C9.5,39.4,2,31.9,2,22.6S9.5,5.9,18.8,5.9s16.8,7.5,16.8,16.8S28,39.4,18.8,39.4z"/><path d="M45.2,39.4c-9.2,0-16.8-7.5-16.8-16.8S36,5.9,45.2,5.9S62,13.4,62,22.6S54.5,39.4,45.2,39.4z"/></g><circle cx="45.1" cy="22.6" r="13.1" fill="#c7e755"/><circle cx="45.1" cy="22.6" r="9.4" fill="#fff"/><circle cx="45.1" cy="22.6" r="5.6" fill="#3e4347"/><g fill="#c7e755"><path d="m32.5 9.5c0 3.1-.5 5.6-.5 5.6s-.5-2.5-.5-5.6.5-5.6.5-5.6.5 2.5.5 5.6"/><path d="m29.7 10.3c1 2.1 1.3 3.9 1.3 3.9s-1.4-1.5-2.4-3.6c-1-2.1-1.3-3.9-1.3-3.9s1.4 1.5 2.4 3.6"/><path d="m34.3 10.3c-1 2.1-1.3 3.9-1.3 3.9s1.4-1.5 2.4-3.6c1-2.1 1.3-3.9 1.3-3.9s-1.4 1.5-2.4 3.6"/><circle cx="18.9" cy="22.6" r="13.1"/></g><circle cx="18.9" cy="22.6" r="9.4" fill="#fff"/><circle cx="18.9" cy="22.6" r="5.6" fill="#3e4347"/><path d="m28.2 31.1c0 3.2 1.5 6.1 3.8 8 2.3-1.9 3.8-4.8 3.8-8s-1.5-6.1-3.8-8c-2.3 1.9-3.8 4.7-3.8 8" fill="#ffce31"/><g fill="#f2b200"><path d="m32 23.1v16c2.3-1.9 3.8-4.8 3.8-8s-1.5-6.1-3.8-8"/><path d="m18.8 54.9c0 2.5-2 6.1-2 6.1s-2-3.7-2-6.1c0-2.5 4-2.5 4 0"/><path d="m25.4 54.9c0 2.5-2 6.1-2 6.1s-2-3.7-2-6.1c0-2.5 4-2.5 4 0"/><path d="m22.1 54.3c0 3.1-2 7.7-2 7.7s-2-4.6-2-7.7 4-3.1 4 0"/><path d="m42.6 54.9c0 2.5-2 6.1-2 6.1s-2-3.7-2-6.1c0-2.5 4-2.5 4 0"/><path d="m49.2 54.9c0 2.5-2 6.1-2 6.1s-2-3.7-2-6.1c0-2.5 4-2.5 4 0"/><path d="m45.9 54.3c0 3.1-2 7.7-2 7.7s-2-4.6-2-7.7 4-3.1 4 0"/></g></svg>
<svg x="126" y="128" width="62" height="62" viewBox="0 0 64 64"><path fill="#89664c" d="m64 58h-64l5.7-46h52.6z"/><path d="m26.2 8.4c-5.8 0-16.6 1.9-20.1.8 0 0 .9 19.7-4 47.4 6.9-.5 16.1-4.4 22.9-4.4 6.9 0 6.9 4.4 6.9 4.4v-43.3c.2 0 .1-4.9-5.7-4.9" fill="#b0bdc6"/><path d="m26.3 7.7c-5.8 0-14.7 1.8-17.4-1.7 0 0 .9 22.3-5.1 47.2 2.2 3.1 14-1.1 20.9-1.1 6.9 0 7.3 4.5 7.3 4.5v-44c.1 0 .1-4.9-5.7-4.9" fill="#e1ebef"/><path d="m25.1 52.2c-6.9 0-19 4.4-22.9 4.4h29.9c0 0-.1-4.4-7-4.4" fill="#94989b"/><g fill="#7d8b91"><path d="m11.8 14.2l.1-.8c.9 0 2.6-.3 4.5-.7 2.6-.5 5.6-1.1 8-1.1 3.2 0 4.2.7 4.4.8l-.3.3-.3.3c0 0-1-.6-3.8-.6-2.3 0-5.2.6-7.8 1.1-2 .4-3.7.7-4.8.7"/><path d="m11.4 18.5l.1-.9c1 0 2.7-.3 4.6-.7 2.7-.5 5.7-1.1 8.1-1.1 3.2 0 4.3.7 4.4.8l-.2.4-.3.4c0 0-1-.7-3.9-.7-2.4 0-5.3.6-8 1.1-2 .4-3.7.7-4.8.7"/><path d="m11 23l.1-.9c1 0 2.7-.4 4.7-.8 2.7-.6 5.8-1.2 8.3-1.2 3.3 0 4.4.8 4.5.9l-.3.4-.3.4c0 0-1-.7-4-.7-2.4 0-5.4.6-8.1 1.2-2 .4-3.8.7-4.9.7"/><path d="m10.6 27.7l.1-1c1 0 2.8-.4 4.8-.8 2.8-.6 5.9-1.2 8.5-1.2 3.4 0 4.5.8 4.6.9l-.4.4-.2.4c0 0-1-.7-4.1-.7-2.5 0-5.6.6-8.3 1.2-2.1.4-3.9.8-5 .8"/><path d="m10.1 32.6l.1-1c1 0 2.8-.4 4.9-.8 2.8-.6 6-1.3 8.6-1.3 3.4 0 4.6.8 4.7.9l-.3.4-.3.4c0 0-1-.7-4.2-.7-2.5 0-5.7.7-8.5 1.3-2 .4-3.9.8-5 .8"/><path d="m9.6 37.7l.1-1c1 0 2.9-.4 5-.9 2.9-.6 6.2-1.3 8.8-1.3 3.5 0 4.7.9 4.8 1l-.3.4-.3.4c0 0-1.1-.8-4.3-.8-2.6 0-5.8.7-8.7 1.3-2 .5-3.9.9-5.1.9"/><path d="m9.1 43l.1-1.1c1.1 0 2.9-.4 5.1-.9 3-.7 6.3-1.4 9-1.4 3.6 0 4.8.9 4.9 1l-.2.5-.3.4c0 0-1.1-.8-4.4-.8-2.6 0-5.9.7-8.9 1.4-2.1.5-4.1.9-5.3.9"/><path d="m8.6 48.6l.1-1.1c1.1 0 3-.4 5.2-.9 3-.7 6.5-1.5 9.2-1.5 3.7 0 4.9 1 5 1.1l-.3.4-.2.4c0 0-1.1-.9-4.5-.9-2.7 0-6.1.8-9.1 1.5-2.2.5-4.2 1-5.4 1"/></g><path d="m37.8 8.4c5.8 0 16.6 1.9 20.1.8 0 0-.9 19.7 4 47.4-6.9-.5-16.1-4.4-22.9-4.4-6.9 0-6.9 4.4-6.9 4.4v-43.3c-.1 0-.1-4.9 5.7-4.9" fill="#b0bdc6"/><path d="m37.7 7.7c5.8 0 14.7 1.8 17.4-1.7 0 0-.9 22.3 5.1 47.2-2.2 3.1-14-1.1-20.9-1.1-6.9 0-7.3 4.5-7.3 4.5v-44c0 0 0-4.9 5.7-4.9" fill="#d9e3e8"/><path d="m38.9 52.2c6.9 0 19 4.4 22.9 4.4h-29.8c0 0 0-4.4 6.9-4.4" fill="#94989b"/><g fill="#7d8b91"><path d="m52.2 14.2l-.1-.8c-.9 0-2.6-.3-4.5-.7-2.6-.5-5.6-1.1-8-1.1-3.2 0-4.2.7-4.4.8l.3.3.3.3c0 0 1-.6 3.8-.6 2.3 0 5.2.6 7.8 1.1 2.1.4 3.8.7 4.8.7"/><path d="m52.6 18.5l-.1-.9c-1 0-2.7-.3-4.6-.7-2.7-.5-5.7-1.1-8.1-1.1-3.2 0-4.3.7-4.4.8l.3.3.3.4c0 0 1-.7 3.9-.7 2.4 0 5.3.6 8 1.1 1.9.5 3.6.8 4.7.8"/><path d="m53 23l-.1-.9c-1 0-2.7-.4-4.7-.8-2.7-.6-5.8-1.2-8.3-1.2-3.3 0-4.4.8-4.5.9l.3.4.3.4c0 0 1-.7 4-.7 2.4 0 5.4.6 8.1 1.2 2.1.4 3.8.7 4.9.7"/><path d="m53.5 27.7l-.1-1c-1 0-2.8-.4-4.8-.8-2.8-.6-5.9-1.2-8.5-1.2-3.4 0-4.5.8-4.6.9l.3.4.3.4c0 0 1-.7 4.1-.7 2.5 0 5.6.6 8.3 1.2 2 .4 3.9.8 5 .8"/><path d="m53.9 32.6l-.1-1c-1 0-2.8-.4-4.9-.8-2.8-.6-6-1.3-8.6-1.3-3.4 0-4.6.8-4.7.9l.3.4.3.4c0 0 1-.7 4.2-.7 2.5 0 5.7.7 8.5 1.3 2 .4 3.9.8 5 .8"/><path d="m54.4 37.7l-.1-1c-1 0-2.9-.4-5-.9-2.9-.6-6.2-1.3-8.8-1.3-3.5 0-4.7.9-4.8 1l.3.4.3.4c0 0 1.1-.8 4.3-.8 2.6 0 5.8.7 8.7 1.3 2 .5 3.9.9 5.1.9"/><path d="m54.9 43l-.1-1.1c-1.1 0-2.9-.4-5.1-.9-3-.7-6.3-1.4-9-1.4-3.6 0-4.8.9-4.9 1l.3.4.3.4c0 0 1.1-.8 4.4-.8 2.6 0 5.9.7 8.9 1.4 2.1.6 4 1 5.2 1"/><path d="m55.4 48.6l-.1-1.1c-1.1 0-3-.4-5.2-.9-3-.7-6.5-1.5-9.2-1.5-3.7 0-4.9 1-5 1.1l.3.4.3.5c0 0 1.1-.9 4.5-.9 2.7 0 6.1.8 9.1 1.5 2.1.4 4.1.9 5.3.9"/></g></svg>
</svg>