<svg xmlns="http://www.w3.org/2000/svg" viewBox="0 0 200 200" width="200" height="200">
<!-- EmojiOne 2.2.7 (CC-BY 4.0) -->
<svg x="24" y="24" width="152" height="152" viewBox="0 0 64 64"><path d="m15.2 9.1c4.2-2.5 10-6 10.3 1.2.6 14.1 2.5 18 2.5 18l-15.8-10.5c0 0-5.9 5.1-9 6-3.8 1.1 1.6-9.6 5.8-12.6 1.4-.9 4.8-1.2 6.2-2.1" fill="#b2b6b8"/><path d="m19.1 12.3c2.5 3.4 5.5 16.5 5.5 16.5l-4.6 1.2c0 0-1.4-4.6-7.7-12.2l6.8-5.5" fill="#ffc5d3"/><path d="m48.8 5.1c-4.2-2.5-10-6-10.3 1.2-.6 14.1-3.5 21-3.5 21l16.8-13.5c0 0 5.9 5.1 9 6 3.8 1.1-1.6-9.6-5.8-12.6-1.4-.9-4.8-1.2-6.2-2.1" fill="#b2b6b8"/><path d="M44.9,8.3c-2.5,3.4-5.5,16.5-5.5,16.5L44,26c0,0,1.4-4.6,7.7-12.2L44.9,8.3z" fill="#ffc5d3"/><path d="m13.7 34.8c0-7.4 5.7-12.8 18.3-12.8 12.7 0 18.3 5.4 18.3 12.8 0 6.3 9.5 15.4 1 21.6-4 3-11.1 5.6-19.3 5.6-8.2 0-15.3-2.6-19.4-5.6-8.4-6.1 1.1-15.3 1.1-21.6" fill="#c4c5c6"/><path d="m40.6 45.2c-.2-6-4.4-13.2-7-16.6-1.2-1.5-2.2-1.5-3.3 0-2.6 3.4-6.7 10.6-7 16.6-4.7-.6-10.1-.4-11.2 2.2-2.1 5 7.8 13.4 19.8 13.4 12 0 21.9-8.4 19.8-13.4-1-2.5-6.4-2.8-11.1-2.2" fill="#fff"/><path d="m41.4 52.4c-1 .8-2.4 1.3-3.8 1.3-1.4.1-2.8-.3-4-1-.6-.4-1.2-.9-1.6-1.5-.4.6-1 1.1-1.6 1.5-1.2.7-2.6 1.1-4 1-1.3-.1-2.7-.5-3.8-1.3-.6-.5 2.7 5.8 9.4 5.8 6.7 0 10-6.3 9.4-5.8" fill="#4c5359"/><path d="m37.3 38.1c0 0 .4-4.1 3.7-5.4 3.7-1.5 6.2 2.1 6.9 4.2 1 3-.3 6.4-.6 7.1-.2.5-3 2.9-9.2.6 0 0-1.5-3.4-.8-6.5" fill="#fff"/><path d="m37.3 38.1c.1-1.4.5-2.9 1.4-4.1.4-.6 1-1.1 1.6-1.5.3-.2.6-.3 1-.4.4-.1.7-.2 1.1-.2 1.5-.2 3 .5 4 1.5 1.1 1 1.9 2.4 2.3 3.9.4 1.5.3 3.1-.1 4.6-.2.7-.4 1.4-.7 2.1l-.1.3-.1.1-.1.1c0 .1-.1.1-.1.1-.2.2-.3.3-.5.4-.3.2-.6.4-1 .5-1.3.5-2.8.5-4.1.4-1.3-.2-2.6-.6-3.8-1.2 1.3.3 2.6.6 3.9.6 1.3 0 2.6-.1 3.7-.7.3-.1.5-.3.8-.5.1-.1.2-.2.3-.3v-.1c0 0 0 0 0 0l.1-.2c.2-.6.4-1.3.6-1.9.3-1.3.3-2.7 0-4-.3-1.2-1-2.4-1.9-3.3-.9-.9-2-1.5-3.2-1.4-.3 0-.6 0-.9.1-.3.1-.6.2-.9.3-.6.3-1.1.6-1.5 1.1-.9 1-1.5 2.3-1.8 3.7" fill="#b2b6b8"/><ellipse cx="41.8" cy="39.5" rx="3.3" ry="4" fill="#4c5359"/><path d="m26.7 38.1c0 0-.4-4.1-3.7-5.4-3.7-1.5-6.2 2.1-6.9 4.2-1 3 .3 6.4.6 7.1.2.5 3 2.9 9.2.6 0 0 1.5-3.4.8-6.5" fill="#fff"/><path d="m26.7 38.1c-.3-1.4-.9-2.7-1.8-3.6-.4-.5-1-.9-1.5-1.1-.3-.1-.6-.2-.9-.3-.3-.1-.6-.1-.9-.1-1.2 0-2.3.5-3.2 1.4-.9.9-1.6 2.1-1.9 3.3-.3 1.3-.3 2.6 0 4 .1.7.3 1.3.6 1.9l.1.2c0 0 0 0 0 0v.1c.1.1.2.2.3.3.2.2.5.3.8.5 1.1.5 2.4.7 3.7.7 1.3 0 2.6-.3 3.9-.6-1.2.6-2.5 1-3.8 1.2-1.3.2-2.7.2-4.1-.4-.3-.1-.7-.3-1-.5-.2-.1-.3-.2-.5-.4 0 0-.1-.1-.1-.1l-.1-.1-.1-.1-.1-.4c-.3-.7-.5-1.4-.7-2.1-.3-1.5-.4-3-.1-4.6.4-1.5 1.2-2.9 2.3-3.9 1.1-1 2.5-1.7 4-1.5.4 0 .7.1 1.1.2.3.1.7.3 1 .4.6.4 1.2.9 1.6 1.5.9 1.2 1.3 2.6 1.4 4.1" fill="#b2b6b8"/><ellipse cx="22.2" cy="39.5" rx="3.3" ry="4" fill="#4c5359"/><path fill="#fff" d="m28.7 49.6h6.7v5.5h-6.7z"/><path d="m42 51.8c-1.1.6-2.5.8-3.7.7-1.3-.1-2.5-.4-3.5-1-1-.6-1.7-1.5-1.9-2.4l-.9-4.2-.9 4.2c-.2.9-.9 1.8-1.9 2.4-1 .6-2.2 1-3.4 1-1.3 0-2.6-.2-3.8-.7-1.1-.5-2.1-1.4-2.6-2.5.1 1.2.9 2.4 2 3.2 1.2.8 2.7 1.3 4.2 1.3 1.6.1 3.2-.3 4.5-1 .7-.4 1.3-.9 1.8-1.5.5.6 1.1 1.1 1.8 1.5 1.3.7 3 1.1 4.5 1 1.6-.1 3.1-.5 4.3-1.3 1.2-.8 2-2 2-3.2-.4 1.1-1.3 2-2.5 2.5" fill="#b2b6b8"/><path d="m36.4 44.1c-.9-.7-3.6-.8-4.4-.8-.8 0-3.6.1-4.4.8-.6.5-.1 1.8 1.5 2.9 1.1.7 2.1.9 2.9.9.8 0 1.8-.2 2.9-.9 1.7-1.1 2.2-2.4 1.5-2.9" fill="#ff94a4"/></svg>
<svg x="126" y="128" width="62" height="62" viewBox="0 0 64 64"><g fill="#212528"><path d="m21.6 16.1c0 1.2-1 2.2-2.2 2.2h-9.7c-1.2 0-2.2-1-2.2-2.2v-2.7c0-1.2 1-2.2 2.2-2.2h9.7c1.2 0 2.2 1 2.2 2.2 0 0 0 2.7 0 2.7"/><path d="m60.7 15.9c0 .6-.5 1.2-1.2 1.2h-5.2c-.6 0-1.2-.5-1.2-1.2v-1.4c0-.6.5-1.2 1.2-1.2h5.2c.6 0 1.2.5 1.2 1.2v1.4"/><path d="m64 50.3c0 3-2.4 5.4-5.4 5.4h-53.2c-3 0-5.4-2.4-5.4-5.4v-1.6h64v1.6"/></g><path d="M0,20.1c0-3,2.4-5.4,5.4-5.4h53.1c3,0,5.4,2.4,5.4,5.4v1.6H0V20.1z" fill="#51575b"/><path fill="#3e4347" d="m0 21.5h64v28.3h-64z"/><path d="m54.7 18h-32.1l3.2-10.8c.3-.6 1.6-1.6 2.4-1.8 4.9-1.4 15.9-1.4 20.8 0 .8.2 2.1 1.2 2.4 1.8l3.3 10.8" fill="#51575b"/><path d="m53.1 29.6h-29l2.9-14.6c.2-.8 1.5-2.1 2.2-2.4 4.4-1.8 14.4-1.8 18.8 0 .7.3 1.9 1.6 2.2 2.4l2.9 14.6" fill="#3e4347"/><path d="m60.6 37.6c0 12.2-9.9 22-22 22-12.1 0-22-9.8-22-22 0-12.1 9.9-22 22-22 12.2 0 22 9.9 22 22" fill="#788287"/><path d="m58.2 37.6c0 10.8-8.8 19.6-19.6 19.6-10.8 0-19.6-8.8-19.6-19.6 0-10.8 8.8-19.6 19.6-19.6 10.8.1 19.6 8.8 19.6 19.6" fill="#212528"/><circle cx="38.6" cy="37.6" r="15.9" fill="#3e4347"/><circle cx="38.6" cy="37.6" r="8.6" fill="#212528"/><g fill="#f5f5f5"><path d="m50.3 30.9c0 2.7-2.2 4.9-4.9 4.9-2.7 0-4.9-2.2-4.9-4.9 0-2.7 2.2-4.9 4.9-4.9 2.7-.1 4.9 2.2 4.9 4.9" opacity=".5"/><circle cx="35.6" cy="40.7" r="3.1" opacity=".5"/><circle cx="30.1" cy="46.2" r="1.9" opacity=".5"/></g><path d="m15 45.3c0 1.2-1 2.2-2.2 2.2h-9.2c-1.2 0-2.2-1-2.2-2.2v-19.4c0-1.2 1-2.2 2.2-2.2h9.2c1.2 0 2.2 1 2.2 2.2v19.4" fill="#636c72"/><circle cx="10.1" cy="18.6" r="3.2" fill="#212528"/></svg>
</svg>