<svg xmlns="http://www.w3.org/2000/svg" viewBox="0 0 200 200" width="200" height="200">
<!-- EmojiOne 2.2.7 (CC-BY 4.0) -->
<svg x="24" y="24" width="152" height="152" viewBox="0 0 64 64"><g fill="#a8b2ba"><path d="m17.9 51.7c-3.4 5.8-6.2 6-8.7 4.6s-3.7-3.9-.3-9.7c3.4-5.8 10.2-12.8 12.7-11.4 2.5 1.4-.3 10.6-3.7 16.5"/><path d="m55.1 46.5c3.4 5.8 2.2 8.3-.3 9.7-2.5 1.4-5.3 1.3-8.7-4.6-3.4-5.8-6.2-15.1-3.7-16.5 2.5-1.4 9.3 5.6 12.7 11.4"/><ellipse cx="32" cy="52.1" rx="13.9" ry="8.4"/></g><ellipse cx="32" cy="46.6" rx="13" ry="9.3" fill="#cfdae8"/><path d="M62,13.8c0,6.5-5,11.8-11.1,11.8c-6.1,0-11.1-5.3-11.1-11.8c0-6.5,5-11.8,11.1-11.8C57,2,62,7.3,62,13.8z" fill="#a8b2ba"/><path d="m57.6 13.8c0 3.9-3 7.1-6.7 7.1-3.7 0-6.7-3.2-6.7-7.1 0-3.9 3-7.1 6.7-7.1 3.7 0 6.7 3.2 6.7 7.1" fill="#cfdae8"/><ellipse cx="13.1" cy="13.8" rx="11.1" ry="11.8" fill="#a8b2ba"/><path d="m19.8 13.8c0 3.9-3 7.1-6.7 7.1-3.7 0-6.7-3.2-6.7-7.1 0-3.9 3-7.1 6.7-7.1 3.7 0 6.7 3.2 6.7 7.1" fill="#cfdae8"/><g fill="#a8b2ba"><path d="m12 35.7c-2.3-2.1-3-5.3-3-5.3l1.5.3c0 0-1.8-1.7-1.3-5.4l1.5 1.5c0 0-1.5-3.8-.2-7.2l1.7 1.1c0 0-.5-1.4 0-2.4l.7.5c0 0-1.3-3.2-.1-4.6.7 2 1.4 1.9 1.4 1.9s-1-1.5-.2-2.1c.8 1.1 1.4.4 1.4.1 0-.4.1-1.1-2.1-1.4 1.8-1 3.9-.3 3.9-.3s-.1-1-1.6-1c1.4-1.1 3.4-.4 3.4-.4l-2.6 6.3-3.2 9.4-1.2 9"/><path d="m32 7.5c-17.6 0-21.5 11.9-21.5 26.3 0 1.5 9.6 9.7 21.5 9.7s21.5-8.2 21.5-9.7c0-14.4-3.9-26.3-21.5-26.3"/><path d="m52 35.7c2.3-2.1 3-5.3 3-5.3l-1.5.3c0 0 1.8-1.7 1.3-5.4l-1.5 1.5c0 0 1.5-3.8.2-7.2l-1.7 1.1c0 0 .5-1.4 0-2.4l-.7.5c0 0 1.3-3.2.1-4.6-.7 2-1.4 1.9-1.4 1.9s1-1.5.2-2.1c-.8 1.1-1.4.4-1.4.1 0-.4-.1-1.1 2.1-1.4-1.8-1-3.9-.3-3.9-.3s.1-1 1.6-1c-1.4-1.1-3.4-.4-3.4-.4l2.6 6.3 3.2 9.4 1.2 9"/></g><ellipse cx="19.8" cy="28" rx="4" ry="3.9" fill="#d5ff83"/><ellipse cx="19.8" cy="28" rx="2.6" ry="2.5" fill="#3e4347"/><ellipse cx="44.2" cy="28" rx="4" ry="3.9" fill="#d5ff83"/><ellipse cx="44.2" cy="28" rx="2.6" ry="2.5" fill="#3e4347"/><path d="m24.8 34.2c0-5.9 4.8-8.2 7.2-8.2s7.2 2.3 7.2 8.2c0 7.5-2.6 9.3-7.2 9.3s-7.2-1.7-7.2-9.3" fill="#555e63"/><path d="m27.7 55.8c0 5.1-3.2 6.2-7.1 6.2-3.9 0-7.1-1.2-7.1-6.2 0-5.1 3.2-9.2 7.1-9.2s7.1 4.1 7.1 9.2" fill="#96a2aa"/><path d="m25.6 57.1c0 3.6-2.3 4.4-5 4.4s-5-.8-5-4.4c0-3.6 2.3-6.5 5-6.5s5 3 5 6.5" fill="#cfdae8"/><path d="m50.6 55.8c0 5.1-3.2 6.2-7.1 6.2-3.9 0-7.1-1.2-7.1-6.2 0-5.1 3.2-9.2 7.1-9.2 3.9 0 7.1 4.1 7.1 9.2" fill="#96a2aa"/><path d="m48.5 57.1c0 3.6-2.3 4.4-5 4.4s-5-.8-5-4.4c0-3.6 2.3-6.5 5-6.5 2.7 0 5 3 5 6.5" fill="#cfdae8"/></svg>
<svg x="126" y="128" width="62" height="62" viewBox="0 0 64 64"><path fill="#dfe9ef" d="M21.6 56.6 2 58.2 8.1 5 27.1 3.8z"/><path fill="#bbc3c7" d="m43.4 62l-21.8-5.4 5.5-52.8 13.8 6z"/><path fill="#dfe9ef" d="M62 55.2 43.4 62 40.9 9.8 55.9 2z"/><path fill="#5df6ff" d="m22.1 52.1l-15.3 1.2 4.7-44.8 15.2-.9z"/><path fill="#00c0cf" d="m43.2 58l-21.1-5.9 4.6-44.5 14.4 6z"/><path fill="#5df6ff" d="M57.9 52.5 43.2 58 41.1 13.6 53 7.9z"/><g opacity=".7"><path d="m21.6 36c-.3.1-.6.3-.8.5.1.1.1.1.1.1-1.9 3.5 1.1 4.7 1.1 4.7-1.2 6.1 1.3 8.1 1.3 8.1-.6-4.6 3-7.6 3-7.6 1-4.7-3.3-5.6-4.7-5.8" fill="#f361f5"/><path d="m20.4 35.6c-1.8-1.2-1.8-3.1-1.8-3.1 3 0 6.3-4.4 6.3-4.4-2.2-7-3.1-1.1-3.1-1.1-3.2-3.4.9-5 .9-5-2.5-1-3.6-3.8-3.6-3.8-.1 1.8-.9 1.7-.9 1.7-5.7-3.1-6.7 1.9-6.7 1.9.9 2.7-1 3-1 3 1.9.3 2.9-2.1 2.9-2.1 3.9 1.8 1.8 8.4 1.8 8.4 1.5.8 1.9 3.6 1.9 3.6 1.1.3 2.1.9 2.9 1.4.1-.3.2-.4.4-.5" fill="#edba53"/><path d="m26.4 16.1c0 0-1.7-1.1-4.5.6 0 0-.7 6.3 4.5-.6" fill="#eef8fb"/><path d="m30.6 17.5c-2.2-3.6-5.8 1.3-5.8 1.3 1.3 1 1.4 1.9 1.2 2.7-.9 3 .3 3.9.3 3.9.7-2.5 3.1-2.9 3.1-2.9-.3-2.3 1.2-5 1.2-5" fill="#5f5cff"/><path d="m36.7 33.7c-.2.1-.4.1-.6 0-.5-.5-.8-1.1-1.1-1.7-.1-.1-.1-.2-.1-.3-1.7-.6-5-1.2-5.5 3.4 0 0 .6 3.1 2.7 1.5 0 0 2.3.4 1.4 4.5 0 0 .4 3.2 2.4 2.9 0 0 .5-4.6 3.1-8.2-.1.1-1.1 1.1-2.3-2.1" fill="#ff7033"/><path d="m53.3 18.1c0 0-4.9 1.7-10.3 1.2 0 0 .5-1.6-1.4-1.8 0 0-2.5 3-1.4 4.7 0 0-.5 3-1.1-1.4 0 0-1 2.6-2.5 2 0 0-.4 2.6-1.3.9 0 0 .7.3.9-.5 0 0-2.1-2.1-3.3 1.1 0 0-1 .4-.6 1.8 0 0 .7-1.2 1.1.6 0 0 .4-.3.5-2.6 0 0 1-.5.2 1.4 0 0 2.2 0-1.2 1.9 0 0-.2 0-.3-.7 0 0-.5 1.7-1.6 2.3 0 0 .3.7-.5 1 0 0-.4 1.1.6 1.1 0 0 .9-2.5 2.6-.5 0 0 .3-.1-.2-1.1 0 0 .9.3 1.2 1.6 0 0 .5-.1.6-1.2 0 0 .7-1.5 1.8.3 0 0-1.5-.4-1.9 1 0 0 .7-.3 1.1.1 0 0 0 .7-.4.9.2.3.4.7.7.9.2.2.2.4.1.6.8 1.3 2.2 2.9 3.3.3 0 0-1.4.7-1.8-1.3 0 0 3.5.4 4.4 3.9 0 0 1-.7 1.3-3 0 0 1.2.1 2.6 3 0 0 .6-.1.3-2 0 0 2.3-.9 1-4.6 0 0 1.9 2.5 1.3-.7 0 0 2.1-2.4-.4-4 0 0 .1-1.8 1.6-1.5 0 0 1.5-3.7.8.7 0 0 0 .9 1 1.8 0 0 .4-1.4-.3-3 .2-.2 1.7-2.9 1.5-5.2" fill="#6c732d"/><g fill="#f361f5"><path d="m31.9 27.8c.4-.9-.9-1.8-.9-1.8.2 2 .5 2.6.9 1.8"/><path d="m30.3 27.9c0 0 .6-.1.5-.8 0 0-.5 0-.5.8"/><path d="m30.1 23.8c0 0-1.6 0-1 .8.5.7 1-.8 1-.8"/></g><path d="m38.2 42.5c0 0 .5-.9.5-2.4 0 0-1.6 1.7-.5 2.4" fill="#edff54"/><path d="m48.4 36.6c0 0-1.1 1-.9 1.9.2.9 1.2-.2.9-1.9" fill="#eef8fb"/><path d="m53 39.8c.5-.8-2.7-1.8-2.7-1.8.6.8 2.2 2.5 2.7 1.8" fill="#edff54"/><path d="m49.3 39.9c.8-1.2-2.3-.6-2.3-.6s2 1.1 2.3.6" fill="#f361f5"/><g fill="#f33"><path d="m50.5 40.2c0 0-.6 1.3-2.9 1.8 0 0 .5 1 0 3 0 0 2.3-2.7 3.6 1.2 0 0 1.1.6 1.9-3 0 0-1-1.3-1.3-3.1.1 0-.2 2.3-1.3.1"/><path d="m49.5 31.5c0 0 2.6-.9 1.5-3 .1-.1.3-.2.3-.2-1.1-1.7-.7.7-.7.7.1-.2.2-.3.2-.4 0 .8-.1 1.9-1.3 2.9"/><path d="m22.6 23.5c0 0 1.9 2.7 2.1-.3.1-.7-.2-.8-.5-.8-.1-2-1.5-2.6-1.5-2.6-.9.5-.8 1.2-.8 1.2.8.1 1.3 1.1 1.6 1.9-.1.3-.4.6-.9.6"/></g><path d="m31.3 15.9c.6-1.2-1.2-2.6-1.2-2.6.2 2.9.6 3.8 1.2 2.6" fill="#edff54"/><path d="m29.8 14.8c0 0-.7.1-.7 1.2 0 0 .9-.1.7-1.2" fill="#fff"/></g></svg>
</svg>