<svg xmlns="http://www.w3.org/2000/svg" viewBox="0 0 200 200" width="200" height="200">
<!-- EmojiOne 2.2.7 (CC-BY 4.0) -->
<svg x="24" y="24" width="152" height="152" viewBox="0 0 64 64"><path d="m43.7 56.9c3 .5 6.6-.5 10.4-3.9 5.2-4.5 8.3-10 7.8-17.4-.2-2.9-1.3-4.8-2.6-6-1-.9-7.1 1.2-7.1 7.8.1 12.6-8.5 19.5-8.5 19.5" fill="#947151"/><path d="m52.8 38.6c0-6 3-8.5 6.5-9-3.3-3.4-9.2 2.3-9.2 7.5 0 12.6-5.2 13.7-8.1 19.4 0 0 .5.3 1.6.3 3.7-3 9.2-8.6 9.2-18.2" fill="#231f20"/><path d="m51.2 37.5c0-6 3.5-8.6 7.1-8.7-3.8-2.3-9.4 1-9.4 7.3 0 10.3-6.9 14.9-6.9 14.9v5.4c1.6-1.1 9.2-7.6 9.2-18.9" fill="#ffe8bb"/><g fill="#5e4433"><path d="m10.6 38.1c0 0-7.4.5-8.4-1.6-1.4-3 5.9-4.6 8.4-3.4v5"/><path d="m29.7 58.5c0 0-10.8.5-10.8-1 0-1.5 4.9-4.5 10.8-4.5v5.5"/></g><path d="m41.7 56.8c2.9-4.3 3.5-12.9 1.4-18.1-1.7-4.2-6.2-9.3-12.8-12.1-16.5-7.2-22.5 3.7-15 9.2 8.8 6.5 8 16.9 11.4 21.2-3.6.9-6.2 2.8-6.2 3.9 0 1.5 10.8 1 10.8 1 6 0 10.8-1.2 10.8-2.7.1-1.1-.1-1.8-.4-2.4" fill="#947151"/><path d="m31.5 45.9c0-3.7 1.6-6.9 4.1-8.9-5.2.4-9.9 5.2-9.9 11.1.1 5.3 3.4 8 2.3 8.4-8.8 3.1 1.2.8 8.2 2.6 2.2.6-4.7-7.1-4.7-13.2" fill="#ffe8bb"/><path d="m46.1 41.2c0-6.9-9.6-15-15.7-16.9-2.2-.7-4.2-1.2-6-1.5.2.8.3 1.7.4 2.5 12.3 3.1 24.2 15.6 16.9 31.5 3.5-5 4.4-9.2 4.4-15.6" fill="#231f20"/><path d="m31.4 22.9c-2.7-.7-5.1-1-7.4-1 .4.6.6 1.4.7 2.2 10.5 2.9 20.5 9.6 20.5 21.5 0 2.7-1.6 8.7-3.6 11.3 3.9-2.8 6.1-9.4 6.1-15.7.1-10-7.4-15.9-16.3-18.3" fill="#ffe8bb"/><path d="m19.9 19.7l-5.6.6c-.3-3.1 2.3-5.9 2.3-5.9s3 2.2 3.3 5.3" fill="#5e4433"/><path d="m22.4 20.2c.3-3.1-2.2-6.2-2.2-6.2s-3.2 2.2-3.6 5.3c-5.4.2-11.4 7.5-10.9 13.3.1 1.6 4.4 4.6 9.8 4.6s9.8-4.8 9.8-10.7c.1-3.5-1-5.4-2.9-6.3" fill="#947151"/><path d="m21.5 21.3c-.5 4.3-1.4 4.1-2.6 3.9-1.2-.2-2.1-.2-1.6-4.5.3-2.3 2.6-3.9 2.6-3.9s1.8 2.2 1.6 4.5" fill="#f4a19a"/><path d="m16 27.4c0 0-1.5 1.9-3.3 1.9-1.8 0-2.6-1.9-2.6-1.9s.8-3.5 2.6-3.5c1.8 0 3.3 3.5 3.3 3.5" fill="#ffe8bb"/><path d="m14.6 27.2c0 0-.9 1.2-2 1.2-1.1 0-1.6-1.2-1.6-1.2s.5-2.1 1.6-2.1c1.1 0 2 2.1 2 2.1" fill="#231f20"/><path d="m25.7 27.5c-1.8.6-4.5-.5-4.5-.5-2.4-3-3.7 1-3.7 1l1.1.4-2 .9.5.5h-1l.6.5-.4.3c-.7-.4-1.4-.6-2.2-.6-2.6 0-4.8 2.3-4.8 5.2s2.1 5.2 4.8 5.2c2.6 0 4.8-2.3 4.8-5.2 0-.1 0-.2 0-.3l1.8.5-.4-1.4h2.1l-.9-.8 3-2.3h-1.8l2.8-1.7c0 0-1.5 0-2.1 0 1 .1 4.2-2.4 2.3-1.7" fill="#ffe8bb"/><path d="m25.7 42.4c.1 2.3-5.4 9-13.3-1.3 0 0-7.4.5-8.4-1.6-1.4-3 7.1-4.8 9.3-3.4 5.2 3.2 12.2-3 12.4 6.3" fill="#947151"/></svg>
<svg x="126" y="128" width="62" height="62" viewBox="0 0 64 64"><path fill="#d6eef0" d="m0 0h64v64h-64z"/><circle cx="52" cy="12" r="7" fill="#ffe62e"/><g fill="#fff"><path d="m22 7c0 1.1-.9 2-2 2h-10c-1.1 0-2-.9-2-2 0-1.1.9-2 2-2h10c1.1 0 2 .9 2 2"/><path d="m26 9c0 1.1-.9 2-2 2h-4c-1.1 0-2-.9-2-2 0-1.1.9-2 2-2h4c1.1 0 2 .9 2 2"/><path d="m40 12c0 1.1-.9 2-2 2h-4c-1.1 0-2-.9-2-2 0-1.1.9-2 2-2h4c1.1 0 2 .9 2 2"/><path d="m19 19c0 1.1-.9 2-2 2h-4c-1.1 0-2-.9-2-2 0-1.1.9-2 2-2h4c1.1 0 2 .9 2 2"/></g><path fill="#42ade2" d="m0 32h64v32h-64z"/><path d="m55 51.2c-1.2 6.2-9.2 6.8-23 6.8-13.8 0-21.8-.5-23-6.8-1.3-6.7 9.2-11.2 23-11.2 13.8 0 24.3 4.5 23 11.2" fill="#428bc1"/><path d="m53 50.3c-1.4 5.1-9.4 4.7-21 4.7-11.6 0-19.6.4-21-4.7-1.6-5.9 9.4-12.3 21-12.3 11.6 0 22.6 6.4 21 12.3" fill="#ffdd7d"/><path d="m42 47.1c0 2-3.2.3-5 1-1.8.7-2.2 2.1-5 2.1-2.7 0-3.2-1.3-5-2.1-1.8-.7-5 .9-5-1 0-2.3 4.5-6.9 10-6.9 5.5 0 10 4.6 10 6.9" fill="#83bf4f"/><path d="m38 45c0 1.1-2.1 1-6 1-3.9 0-6 .1-6-1s2.1-3 6-3c3.9 0 6 1.9 6 3" fill="#75a843"/><path d="m30.5 44.2c0 0-2-10.3 6.2-19.4l1.8.9c0 0-5 3.2-5 18.5 0 0-1.5 1.3-3 0" fill="#dbb471"/><path d="m41.1 23.5c-1 0-1.9.2-2.7.7.3-.8.4-1.8.2-2.8-.5-2.8-3-4.6-5.6-4.2-.3.1-.6.1-.9.3 2.1.1 4.1 2.2 4.6 4.9.3 1.6.1 3.3-.6 4.5 1.1-.9 2.6-1.4 4.2-1.4 2.8 0 5.2 1.6 5.7 3.6.1-.3.1-.6.1-.9.1-2.6-2.1-4.7-5-4.7" fill="#699635"/><path d="m33.3 22.2c.2.1.5.2.7.3-.1-.1-.1-.1-.2-.2-2.6-2.2-6-2.6-8.1-1.1.2-.3.4-.7.6-1 2-2.4 5.8-2.6 8.4-.4 1.9 1.6 2.7 4.1 2.1 6.3 2-.9 4.6-.6 6.5 1 2.6 2.2 3.1 5.9 1 8.4-.3.3-.5.6-.8.8 1.1-2.3.2-5.6-2.4-7.8-.1-.1-.1-.1-.2-.2.2.2.3.4.4.6 1.3 2.4.7 5.3-1.5 6.6-.3.2-.6.3-.8.4 1.5-1.4 1.8-4.2.3-6.5-1.4-2.1-3.7-1.6-3.7-1.6s0-2.6-2.5-3.7c-2.7-1.2-5.2-.1-6.4 1.6 0-.3.1-.6.2-.9 1.1-2.3 3.9-3.5 6.4-2.6" fill="#83bf4f"/><g fill="#89664c"><path d="m30 40c0 0-.2 2 2 2 1.6 0 2-2 2-2h-4"/><path d="m30.6 36c0 0-.5 1.7 1.7 2 1.6.2 2.3-1.4 2.3-1.4l-4-.6"/><path d="m31.6 32c0 0-.5 1.7 1.7 2 1.6.2 2.3-1.4 2.3-1.4l-4-.6"/><path d="m33.2 28c0 0-.9 1.3 1.2 1.9 1.5.4 2.6-.9 2.6-.9l-3.8-1"/></g></svg>
</svg>