<svg xmlns="http://www.w3.org/2000/svg" viewBox="0 0 200 200" width="200" height="200">
<!-- EmojiOne 2.2.7 (CC-BY 4.0) -->
<svg x="24" y="24" width="152" height="152" viewBox="0 0 64 64"><path d="m29.6 42.8c0 0-4.7-20.8-13.1-20.8-15.1 0-15.5 27.8-5.3 37 3.1 2.8 16.1 2.8 43.5 0 2.9-.3 1.8-3.1-2.3-5-2.7-1.3-15.8-3.7-22.8-11.2" fill="#94d82a"/><g fill="#769e2a"><ellipse cx="27.8" cy="39.8" rx="3.9" ry="6.7"/><ellipse cx="31.5" cy="53.4" rx="2.4" ry="2.7"/><ellipse cx="22.5" cy="48.5" rx="1.8" ry="3.1"/><ellipse cx="20.2" cy="36.4" rx="1.4" ry="2.1"/></g><path d="m9.6 26.1c0 1.2.4 2.3 1.1 2.9.3.3.7.5 1.1.7.2.1.4.1.6.1 0 0 .3 0 .4 0 .1 0 .2 0 .3 0 .9 0 1.8-.3 2.5-.9.7-.6 1.2-1.6 1.6-2.8.4 1.2.4 2.6-.4 3.8-.8 1.2-2.3 1.9-3.7 1.9-.2 0-.3 0-.5 0-.2 0-.3 0-.5-.1-.4-.1-.7-.2-1.1-.3-.7-.3-1.3-.8-1.6-1.5-.7-1.2-.6-2.8.2-3.8" fill="#3e4347"/><path d="m58.9 42.3c3.4-4.3 3.9-11.2 2-15.4-2.8-6.2-8.3-7.1-8.3-7.1-7.4-11.9-27.8-11.9-34 2.7 5.3 3.1 8.3 11.8 10 16.5 1.6 6.3 4.7 12 9.8 13.5 2.2.6 2.6-1.7 2.6-1.7 1.4 2 4.3 3.4 6.9 2.7 9.7-2.8 11-11.2 11-11.2" fill="#e08828"/><g fill="#94d82a"><path d="m14.5 24.2l-2.6.9-2.5-6.9 2.6-.9z"/><path d="m20.3 26.8l-2.5-1.1 3.1-6.7 2.5 1.2z"/><path d="m19 12.7c0 4.7-3.8 8.5-8.5 8.5-4.7 0-8.5-3.8-8.5-8.5 0-4.7 3.8-8.5 8.5-8.5 4.7.1 8.5 3.9 8.5 8.5"/></g><path d="m15.4 13c0 3.7-2.9 6.6-6.4 6.6-3.6 0-6.4-3-6.4-6.6 0-3.7 2.9-6.6 6.4-6.6 3.5 0 6.4 3 6.4 6.6" fill="#fcfcfa"/><path d="m14.6 13c0 2.5-2 4.6-4.4 4.6-2.4 0-4.4-2-4.4-4.6 0-2.5 2-4.6 4.4-4.6 2.5.1 4.4 2.1 4.4 4.6" fill="#3e4347"/><g fill="#93603b"><path d="m41.1 50.7c-1.9-2.9-3.3-6.2-4-9.6-.7-3.5-.7-7.1.1-10.6.8-3.5 2.5-6.9 5.3-9.3 1.4-1.2 3.1-2 4.9-2.3 1.8-.3 3.6 0 5.2.8-1.7-.4-3.4-.4-5 .1-1.6.5-2.9 1.4-4.1 2.5-1.1 1.1-2.1 2.5-2.8 4-.7 1.5-1.3 3-1.6 4.6-.8 3.2-.9 6.6-.5 9.9.5 3.4 1.3 6.7 2.5 9.9"/><path d="m58.9 42.3c-.7.9-1.6 1.6-2.6 2.2-1 .6-2.1 1-3.4 1.1-1.2.1-2.5-.3-3.6-1-1.1-.7-1.9-1.6-2.6-2.6-1.4-2-1.9-4.7-1.6-7.1.3-2.4 1.4-4.8 3.1-6.6.9-.9 1.9-1.7 3.2-2.1 1.2-.5 2.6-.6 3.9-.2 1.4.4 2.5 1.4 3.1 2.5.6 1.2.9 2.5.8 3.8-.1 1.3-.5 2.6-1.5 3.5-.9 1-2.5 1.5-3.8.8-1.3-.7-1.9-2.1-1.6-3.4.2-.7.6-1.2 1.2-1.5.3-.1.7-.2 1 0 .3.1.5.3.7.6-1-.9-2 .3-2.1 1.1-.1.9.5 1.9 1.3 2.2.4.2.8.1 1.3 0 .4-.1.8-.4 1.1-.7.6-.7.9-1.7.9-2.7 0-1-.2-2-.7-2.8-.5-.8-1.2-1.4-2.1-1.6-1.8-.5-3.8.4-5.2 1.9-2.8 2.9-3.7 7.9-1.6 11.5 1 1.8 2.7 3.3 4.8 3.4 2.1.1 4.3-1 6-2.3"/></g><path d="m34.3 12.7c0 5.4-4.4 9.7-9.8 9.7-5.4 0-9.8-4.4-9.8-9.7 0-5.4 4.4-9.7 9.8-9.7 5.4 0 9.8 4.4 9.8 9.7" fill="#94d82a"/><ellipse cx="22.7" cy="13.1" rx="7.4" ry="7.6" fill="#fcfcfa"/><path d="m29.3 13.1c0 2.9-2.3 5.3-5.1 5.3-2.8 0-5.1-2.4-5.1-5.3 0-2.9 2.3-5.3 5.1-5.3 2.8 0 5.1 2.4 5.1 5.3" fill="#3e4347"/></svg>
<svg x="126" y="128" width="62" height="62" viewBox="0 0 64 64"><g fill="#4fd1d9"><path d="m58 33.2c-.4-14.1-12.6-24.7-26.7-22.1-12 2.2-19.3 15.1-13.9 26.1 2.6 5.4 9.1 7.8 14.8 6.5 6-1.3 9.2-8.5 6.9-13.9-1.3-3-6.3-1.7-5 1.4 2.4 5.7-3.6 9.1-8.5 7-3.7-1.6-4.9-5.9-4.9-9.6.1-9.1 10.7-14 18.7-12.6 10.2 1.9 14.6 13.6 13 22.8-1.7 9.9-10.8 16.5-20.3 18.2-3.3.6-1.9 5.6 1.4 5 14.1-2.6 24.9-14.2 24.5-28.8"/><path d="m46.6 25.5c-6.4-11.2-25.6-4.9-21 8.2 1.1 3.1 6.1 1.8 5-1.4-1.7-4.9 1.7-8.3 6.9-7.6 4 .6 6 5.1 6.4 8.6 1.5 11.7-12.1 17.8-21.4 13.7-8.8-3.9-12.7-13.9-10.6-22.9 2.2-9 10.7-16.2 19.9-16.9 3.3-.3 3.3-5.4 0-5.2-13.8 1.1-24.7 12.4-25.7 26-1.1 13.6 10.7 26.1 24.4 25.6 14-.5 23-16.1 16.1-28.1"/></g></svg>
</svg>