<svg xmlns="http://www.w3.org/2000/svg" viewBox="0 0 200 200" width="200" height="200">
<!-- EmojiOne 2.2.7 (CC-BY 4.0) -->
<svg x="24" y="24" width="152" height="152" viewBox="0 0 64 64"><path d="m15.2 9.1c4.2-2.5 10-6 10.3 1.2.6 14.1 2.5 18 2.5 18l-15.8-10.5c0 0-5.9 5.1-9 6-3.8 1.1 1.6-9.6 5.8-12.6 1.4-.9 4.8-1.2 6.2-2.1" fill="#b2b6b8"/><path d="m19.1 12.3c2.5 3.4 5.5 16.5 5.5 16.5l-4.6 1.2c0 0-1.4-4.6-7.7-12.2l6.8-5.5" fill="#ffc5d3"/><path d="m48.8 5.1c-4.2-2.5-10-6-10.3 1.2-.6 14.1-3.5 21-3.5 21l16.8-13.5c0 0 5.9 5.1 9 6 3.8 1.1-1.6-9.6-5.8-12.6-1.4-.9-4.8-1.2-6.2-2.1" fill="#b2b6b8"/><path d="M44.9,8.3c-2.5,3.4-5.5,16.5-5.5,16.5L44,26c0,0,1.4-4.6,7.7-12.2L44.9,8.3z" fill="#ffc5d3"/><path d="m13.7 34.8c0-7.4 5.7-12.8 18.3-12.8 12.7 0 18.3 5.4 18.3 12.8 0 6.3 9.5 15.4 1 21.6-4 3-11.1 5.6-19.3 5.6-8.2 0-15.3-2.6-19.4-5.6-8.4-6.1 1.1-15.3 1.1-21.6" fill="#c4c5c6"/><path d="m40.6 45.2c-.2-6-4.4-13.2-7-16.6-1.2-1.5-2.2-1.5-3.3 0-2.6 3.4-6.7 10.6-7 16.6-4.7-.6-10.1-.4-11.2 2.2-2.1 5 7.8 13.4 19.8 13.4 12 0 21.9-8.4 19.8-13.4-1-2.5-6.4-2.8-11.1-2.2" fill="#fff"/><path d="m41.4 52.4c-1 .8-2.4 1.3-3.8 1.3-1.4.1-2.8-.3-4-1-.6-.4-1.2-.9-1.6-1.5-.4.6-1 1.1-1.6 1.5-1.2.7-2.6 1.1-4 1-1.3-.1-2.7-.5-3.8-1.3-.6-.5 2.7 5.8 9.4 5.8 6.7 0 10-6.3 9.4-5.8" fill="#4c5359"/><path d="m37.3 38.1c0 0 .4-4.1 3.7-5.4 3.7-1.5 6.2 2.1 6.9 4.2 1 3-.3 6.4-.6 7.1-.2.5-3 2.9-9.2.6 0 0-1.5-3.4-.8-6.5" fill="#fff"/><path d="m37.3 38.1c.1-1.4.5-2.9 1.4-4.1.4-.6 1-1.1 1.6-1.5.3-.2.6-.3 1-.4.4-.1.7-.2 1.1-.2 1.5-.2 3 .5 4 1.5 1.1 1 1.9 2.4 2.3 3.9.4 1.5.3 3.1-.1 4.6-.2.7-.4 1.4-.7 2.1l-.1.3-.1.1-.1.1c0 .1-.1.1-.1.1-.2.2-.3.3-.5.4-.3.2-.6.4-1 .5-1.3.5-2.8.5-4.1.4-1.3-.2-2.6-.6-3.8-1.2 1.3.3 2.6.6 3.9.6 1.3 0 2.6-.1 3.7-.7.3-.1.5-.3.8-.5.1-.1.2-.2.3-.3v-.1c0 0 0 0 0 0l.1-.2c.2-.6.4-1.3.6-1.9.3-1.3.3-2.7 0-4-.3-1.2-1-2.4-1.9-3.3-.9-.9-2-1.5-3.2-1.4-.3 0-.6 0-.9.1-.3.1-.6.2-.9.3-.6.3-1.1.6-1.5 1.1-.9 1-1.5 2.3-1.8 3.7" fill="#b2b6b8"/><ellipse cx="41.8" cy="39.5" rx="3.3" ry="4" fill="#4c5359"/><path d="m26.7 38.1c0 0-.4-4.1-3.7-5.4-3.7-1.5-6.2 2.1-6.9 4.2-1 3 .3 6.4.6 7.1.2.5 3 2.9 9.2.6 0 0 1.5-3.4.8-6.5" fill="#fff"/><path d="m26.7 38.1c-.3-1.4-.9-2.7-1.8-3.6-.4-.5-1-.9-1.5-1.1-.3-.1-.6-.2-.9-.3-.3-.1-.6-.1-.9-.1-1.2 0-2.3.5-3.2 1.4-.9.9-1.6 2.1-1.9 3.3-.3 1.3-.3 2.6 0 4 .1.7.3 1.3.6 1.9l.1.2c0 0 0 0 0 0v.1c.1.1.2.2.3.3.2.2.5.3.8.5 1.1.5 2.4.7 3.7.7 1.3 0 2.6-.3 3.9-.6-1.2.6-2.5 1-3.8 1.2-1.3.2-2.7.2-4.1-.4-.3-.1-.7-.3-1-.5-.2-.1-.3-.2-.5-.4 0 0-.1-.1-.1-.1l-.1-.1-.1-.1-.1-.4c-.3-.7-.5-1.4-.7-2.1-.3-1.5-.4-3-.1-4.6.4-1.5 1.2-2.9 2.3-3.9 1.1-1 2.5-1.7 4-1.5.4 0 .7.1 1.1.2.3.1.7.3 1 .4.6.4 1.2.9 1.6 1.5.9 1.2 1.3 2.6 1.4 4.1" fill="#b2b6b8"/><ellipse cx="22.2" cy="39.5" rx="3.3" ry="4" fill="#4c5359"/><path fill="#fff" d="m28.7 49.6h6.7v5.5h-6.7z"/><path d="m42 51.8c-1.1.6-2.5.8-3.7.7-1.3-.1-2.5-.4-3.5-1-1-.6-1.7-1.5-1.9-2.4l-.9-4.2-.9 4.2c-.2.9-.9 1.8-1.9 2.4-1 .6-2.2 1-3.4 1-1.3 0-2.6-.2-3.8-.7-1.1-.5-2.1-1.4-2.6-2.5.1 1.2.9 2.4 2 3.2 1.2.8 2.7 1.3 4.2 1.3 1.6.1 3.2-.3 4.5-1 .7-.4 1.3-.9 1.8-1.5.5.6 1.1 1.1 1.8 1.5 1.3.7 3 1.1 4.5 1 1.6-.1 3.1-.5 4.3-1.3 1.2-.8 2-2 2-3.2-.4 1.1-1.3 2-2.5 2.5" fill="#b2b6b8"/><path d="m36.4 44.1c-.9-.7-3.6-.8-4.4-.8-.8 0-3.6.1-4.4.8-.6.5-.1 1.8 1.5 2.9 1.1.7 2.1.9 2.9.9.8 0 1.8-.2 2.9-.9 1.7-1.1 2.2-2.4 1.5-2.9" fill="#ff94a4"/></svg>
<svg x="126" y="128" width="62" height="62" viewBox="0 0 64 64"><path d="m14 51c-1.1 0-2.1-.2-3.1-.5-4.1-1.4-6.9-5.2-6.9-9.5 0-2.9 1.2-5.6 3.4-7.5.6-.5 1.2-.9 1.9-1.3l.7-2.3c1.7-5.8 7-9.8 13-9.8.6 0 1.2 0 1.9.2.6.1 1.1.2 1.6.3l.3-.5c2.4-4.4 7-7.1 12-7.1 7.6 0 13.7 6.2 13.7 13.7 0 .4 0 .7-.1 1.1v.3c.6.2 1.2.5 1.7.8 3.7 2.1 5.9 6 5.9 10.3 0 5.5-3.8 10.3-9.2 11.5-.9.2-1.8.3-2.6.3h-34.2" fill="#fff"/><path d="m38.7 15c6.5 0 11.7 5.3 11.7 11.7 0 .3 0 .6 0 .9-2.7.2-5.2 1.3-7.1 3 1.4-.8 3.1-1.3 4.9-1.3.7 0 1.3.1 1.9.2 1.1.2 2.1.6 3 1.1 2.9 1.7 4.9 4.9 4.9 8.5 0 4.7-3.3 8.6-7.6 9.6-.7.2-1.4.3-2.2.3h-34.2c-.9 0-1.7-.1-2.5-.4-3.2-1.1-5.5-4.1-5.5-7.6 0-2.4 1.1-4.6 2.7-6 .8-.7 1.6-1.2 2.6-1.5.8-.3 1.7-.5 2.6-.5 2.6 0 4.9 1.2 6.3 3.1h.1c-1.7-3.1-4.9-5.3-8.6-5.7 1.4-4.8 5.8-8.4 11.1-8.4.6 0 1.1.1 1.6.1 1.1.2 2.1.4 3 .9 3.5 1.6 6.1 4.9 6.7 8.9 0 0 0 0 0-.1 0-4.5-2.3-8.5-5.8-10.8 2.2-3.6 6-6 10.4-6m0-4c-5.4 0-10.4 2.8-13.3 7.3-.1 0-.2 0-.3-.1-.8-.1-1.5-.2-2.2-.2-6.9 0-13 4.6-14.9 11.3l-.5 1.6c-.5.3-1 .7-1.4 1.1-2.6 2.2-4.1 5.5-4.1 9 0 5.2 3.3 9.8 8.2 11.4 1.2.4 2.5.6 3.8.6h34.2c1 0 2.1-.1 3.1-.4 6.3-1.5 10.7-7 10.7-13.5 0-4.9-2.7-9.5-6.9-12-.2-.1-.4-.2-.6-.3 0 0 0-.1 0-.1-.1-8.6-7.1-15.7-15.8-15.7z" fill="#75d6ff"/></svg>
</svg>