<svg xmlns="http://www.w3.org/2000/svg" viewBox="0 0 200 200" width="200" height="200">
<!-- EmojiOne 2.2.7 (CC-BY 4.0) -->
<svg x="24" y="24" width="152" height="152" viewBox="0 0 64 64"><g fill="#e08828"><path d="m26.3 60.5c-.8 0-2.6.7-3.2.1-.8-.8 0-4.6 0-4.6h-2.3c0 0 .8 3.8 0 4.6-.6.5-2.4-.1-3.2-.1-2 0-3.7 1.5-3.7 1.5h16c.1 0-1.5-1.5-3.6-1.5"/><path d="m46.3 60.5c-.8 0-2.6.7-3.2.1-.8-.8 0-4.6 0-4.6h-2.3c0 0 .8 3.8 0 4.6-.6.5-2.4-.1-3.2-.1-2 0-3.7 1.5-3.7 1.5h16c.1 0-1.5-1.5-3.6-1.5"/></g><g fill="#3e4347"><path d="M10.4,27c-10.8,6.7-8.7,16-7.1,14.9C20,29.7,24.2,18.5,10.4,27z"/><path d="m53.6 27c-13.8-8.5-9.6 2.7 7.1 14.9 1.6 1.1 3.7-8.2-7.1-14.9"/><path d="m48 17.5c0-8.6-7.2-15.5-16-15.5-8.8 0-16 6.9-16 15.5 0 11.6-4 15.5-4 23.2 0 10.6 9 19.3 20 19.3s20-8.7 20-19.3c0-7.7-4-11.6-4-23.2"/></g><path d="m44 18.8c0-12.4-10.1-10-10.1-.7h-3.7c-.1-9.3-10.2-11.7-10.2.7 0 9.7-4 15.7-4 22.1 0 11.6 7.7 17.1 16 17.1s16-5.6 16-17.1c0-6.4-4-12.4-4-22.1" fill="#fff"/><g fill="#3e4347"><path d="m41 17c0 1.7-.9 3-2 3s-2-1.3-2-3c0-1.7.9-3 2-3s2 1.3 2 3"/><path d="m27 17c0 1.7-.9 3-2 3-1.1 0-2-1.3-2-3 0-1.7.9-3 2-3 1.1 0 2 1.3 2 3"/></g><path d="m28 22h8c0 2.5-1.8 4.6-4 4.6-2.2 0-4-2-4-4.6" fill="#e08828"/><path d="m37 22.3l-5 1.2-5-1.2c0-3.2 2.2-5.7 5-5.7 2.8 0 5 2.6 5 5.7" fill="#f29a2e"/><g fill="#3e4347"><path d="m33.7 17.8c.3.3.4.7.3.9-.1.2-.5 0-.8-.3-.3-.3-.4-.7-.3-.9.2-.1.6 0 .8.3"/><path d="m30.3 17.8c-.3.3-.4.7-.3.9.1.2.5 0 .8-.3.3-.3.4-.7.3-.9-.2-.1-.6 0-.8.3"/></g></svg>
<svg x="126" y="128" width="62" height="62" viewBox="0 0 64 64"><circle cx="32" cy="32" r="30" fill="#4fd1d9"/><g fill="#fff"><path d="m18.1 40.7l-.2-1.3h-.1c-.7 1.1-1.9 1.6-3.2 1.6-2.3 0-3.6-1.9-3.6-4.1 0-3.4 2.6-5.1 6.5-5.1v-.2c0-.7-.3-1.7-2-1.7-1.1 0-2.3.5-3.1 1l-.6-2.6c.8-.5 2.3-1.2 4.3-1.2 3.7 0 4.9 2.6 4.9 5.7v4.6c0 1.3 0 2.5.2 3.2h-3.1zm-.5-6.2c-1.8 0-3.2.5-3.2 2.1 0 1.1.6 1.6 1.4 1.6.9 0 1.6-.7 1.8-1.5 0-.2.1-.5.1-.7-.1-.1-.1-1.5-.1-1.5"/><path d="m28.5 40.5c0-.8.1-2.2.1-3.6v-13.9h3v6.9c.6-1 1.6-1.7 3-1.7 2.3 0 4.1 2.4 4 6.1 0 4.3-2.2 6.5-4.5 6.5-1.1 0-2.2-.5-2.9-1.9l-.1 1.7-2.6-.1m3.1-5.1c0 .2 0 .5.1.7.2 1 .9 1.8 1.8 1.8 1.3 0 2.1-1.2 2.1-3.4 0-1.9-.7-3.3-2.1-3.3-.8 0-1.6.8-1.8 1.8 0 .2-.1.4-.1.7 0-.1 0 1.7 0 1.7"/><path d="m53 40.4c-.6.3-1.6.6-2.8.6-3.2 0-5.3-2.6-5.3-6.8 0-3.9 2-7 5.8-7 .8 0 1.7.2 2.4.5l-.5 3.1c-.4-.2-.9-.4-1.7-.4-1.6 0-2.7 1.5-2.7 3.7 0 2.4 1.2 3.7 2.8 3.7.7 0 1.3-.2 1.8-.4l.2 3"/></g></svg>
</svg>