<svg xmlns="http://www.w3.org/2000/svg" viewBox="0 0 200 200" width="200" height="200">
<!-- EmojiOne 2.2.7 (CC-BY 4.0) -->
<svg x="24" y="24" width="152" height="152" viewBox="0 0 64 64"><path d="m60.6 10.4c0 4.6-3.9 8.4-8.7 8.4-4.8 0-8.7-3.8-8.7-8.4s3.9-8.4 8.7-8.4c4.8 0 8.7 3.8 8.7 8.4" fill="#947151"/><path d="m57.1 10.4c0 2.8-2.3 5.1-5.2 5.1-2.9 0-5.2-2.3-5.2-5.1s2.3-5.1 5.2-5.1c2.9 0 5.2 2.3 5.2 5.1" fill="#e0ac7e"/><ellipse cx="12.1" cy="10.4" rx="8.7" ry="8.4" fill="#947151"/><ellipse cx="12.1" cy="10.4" rx="5.2" ry="5.1" fill="#e0ac7e"/><path d="M62,37.1C62,55.2,41.8,62,32,62S2,55.2,2,37.1c0-23,11-28.3,30-28.3S62,14.1,62,37.1z" fill="#947151"/><path d="m18.9 45.6c0-9.3 8.9-12.8 13.2-12.8 4.3 0 13.2 3.5 13.2 12.8 0 11.8-4.8 14.6-13.2 14.6s-13.2-2.8-13.2-14.6" fill="#e0ac7e"/><path d="m32.7 2c.3 1.6-.6 2.8-.6 2.8-1.4-1.9-4.2-2.5-4.2-2.5 1.1 1.3.8 3.3.8 3.3-1.9-.7-3.6-.6-3.6-.6 4 3 3.1 12.1 3.1 12.1 4.7-5 10.6-7.4 10.6-7.4-1.3-4.7-6.1-7.7-6.1-7.7" fill="#947151"/><g fill="#3e4347"><path d="m36.4 57c.1 0 .1-.2.1-.3 0-.7-2-1.4-4.5-1.4-2.5 0-4.5.6-4.5 1.4 0 .1 0 .3.1.3h8.8"/><path d="m22.8 45.9c0-3.8 4.1-4.6 9.2-4.6 5.1 0 9.2.7 9.2 4.6 0 3.1-7.4 5.8-9.2 5.8s-9.2-2.8-9.2-5.8"/><path d="m59.1 30.7l-1.7.3-1.7.3c-1.1.2-2.3.3-3.4.5-2.3.3-4.5.5-6.8.7-4.4.3-9 .5-13.5.5s-9.1-.2-13.6-.6c-4.5-.4-9.1-1-13.5-2-.1 0-.1-.1-.1-.1 0 0 .1-.1.1-.1 2.3.1 4.5.3 6.8.4 2.3.1 4.5.2 6.8.3 4.5.1 9 .2 13.6.2 4.5 0 9 0 13.6-.1 4.5-.1 9-.3 13.6-.4.1 0 .1 0 .1.1-.2-.1-.2 0-.3 0"/><path d="m19.6 32.5c0 1.6-1.6 2.9-3.6 2.9s-3.6-1.3-3.6-2.9 1.6-1.2 3.6-1.2 3.6-.4 3.6 1.2"/><path d="m51.7 32.5c0 1.6-1.6 2.9-3.6 2.9-2 0-3.6-1.3-3.6-2.9s1.6-1.2 3.6-1.2c2 0 3.6-.4 3.6 1.2"/></g></svg>
<svg x="126" y="128" width="62" height="62" viewBox="0 0 64 64"><path d="m60 58.2c0 2.1-1.7 3.7-3.9 3.7h-45.3c-2.1 0-3.9-1.7-3.9-3.7v-44.3c0-2.1 1.7-3.8 3.9-3.8h45.4c2.1 0 3.9 1.7 3.9 3.8v44.3z" fill="#93a2aa"/><path d="M57.1,58.2c0,2.1-1.7,3.7-3.9,3.7H7.9C5.7,62,4,60.3,4,58.2V13.9c0-2.1,1.7-3.8,3.9-3.8h45.4
		c2.1,0,3.9,1.7,3.9,3.8V58.2z" fill="#f0f4f5"/><path d="m52.3 56.4c-6.4 6.2-18 5.6-18 5.6s8.5-2.5 16.3-11.7c5.9-6.9 6.5-15.3 6.5-15.3s3.5 13.3-4.8 21.4" fill="#93a2aa"/><g fill="#3e4347"><ellipse cx="13.1" cy="17" rx="2.9" ry="2.8"/><ellipse cx="24.8" cy="17" rx="2.9" ry="2.8"/><ellipse cx="36.3" cy="17" rx="2.9" ry="2.8"/><ellipse cx="47.9" cy="17" rx="2.9" ry="2.8"/><path d="m40.6 4.6c-.7-1.2-1.7-2.5-3.6-2.6-1.8-.1-1.9 2.1-.1 2.2-.1 0 .4.3.3.2.4.4.6.9.9 1.4.6 1.4.8 2.9.8 4.4h2.9c-.1-1.9-.4-3.9-1.2-5.6m-3.7-.4c.1 0 .1 0 0 0"/><path d="m29 4.6c-.6-1.2-1.7-2.5-3.6-2.6-1.8-.1-1.9 2.1-.1 2.2-.1 0 .4.3.3.2.4.4.6.9.9 1.4.6 1.4.8 2.9.8 4.4h2.9c-.1-1.9-.3-3.9-1.2-5.6m-3.6-.4c0 0 0 0 0 0"/><path d="m17.4 4.6c-.6-1.2-1.7-2.5-3.6-2.6-1.8-.1-1.8 2.1 0 2.2-.1 0 .4.3.3.2.4.4.6.9.9 1.4.6 1.4.8 2.9.8 4.4h2.9c-.1-1.9-.4-3.9-1.3-5.6m-3.6-.4c0 0 0 0 0 0"/><path d="m52.1 4.6c-.6-1.2-1.7-2.5-3.6-2.6-1.8-.1-1.9 2.1-.1 2.2 0 0 .4.3.3.2.4.4.6.9.9 1.4.6 1.4.8 2.9.8 4.4h2.9c0-1.9-.3-3.9-1.2-5.6m-3.6-.4c0 0 0 0 0 0"/></g><g fill="#94989b"><path d="m36.3 16c-.3 0 .4.1 0 0 .3.1-.4-.3-.2-.2-.4-.4-.6-.9-.9-1.4-.6-1.4-.8-2.9-.8-4.4 0-1.5.2-3 .8-4.4.2-.5.4-.8.8-1.3 0-.1.1-.1.4-.3-.3.2 0 0 .1 0-.2.1-.2.1-.1 0-.2 0-.3 0-.1 0 1.9-.1 1.9-2.3 0-2.2-1.9.1-2.9 1.4-3.6 2.6-.9 1.7-1.1 3.7-1.1 5.5 0 1.8.3 3.8 1.1 5.5.6 1.2 1.7 2.5 3.6 2.6 1.9.3 1.9-1.9 0-2"/><path d="m24.8 16c-.4 0 .3.1 0 0 .3.1-.4-.3-.2-.2-.4-.4-.6-.9-.9-1.4-.6-1.4-.8-2.9-.8-4.4 0-1.5.2-3 .8-4.4.2-.5.4-.8.8-1.3 0-.1.1-.1.4-.3-.3.2 0 0 .1 0-.2.1-.2.1-.1 0-.2 0-.3 0-.1 0 1.9-.1 1.9-2.3 0-2.2-1.9.1-2.9 1.4-3.6 2.6-.9 1.7-1.1 3.7-1.1 5.5 0 1.8.3 3.8 1.1 5.5.6 1.2 1.7 2.5 3.6 2.6 1.8.3 1.8-1.9 0-2"/><path d="m13.2 16c-.3 0 .3.1 0 0 .3.1-.4-.3-.2-.2-.4-.4-.6-.9-.9-1.4-.6-1.4-.8-2.9-.8-4.4 0-1.5.2-3 .8-4.4.2-.5.4-.8.8-1.3 0-.1.1-.1.4-.3-.3.2 0 0 .1 0-.2.1-.2.1-.1 0-.2 0-.3 0-.1 0 1.9-.1 1.9-2.3 0-2.2-1.9.1-2.9 1.4-3.6 2.6-.9 1.7-1.1 3.7-1.1 5.5 0 1.8.3 3.8 1.1 5.5.6 1.2 1.7 2.5 3.6 2.6 1.9.3 1.9-1.9 0-2"/><path d="m47.9 16c-.3 0 .3.1 0 0 .3.1-.4-.3-.2-.2-.4-.4-.6-.9-.9-1.4-.6-1.4-.8-2.9-.8-4.4 0-1.5.2-3 .8-4.4.2-.5.4-.8.8-1.3 0-.1.1-.1.4-.3-.3.2 0 0 .1 0-.2.1-.2.1-.1 0-.2 0-.3 0-.1 0 1.9-.1 1.9-2.3 0-2.2-1.9.3-2.9 1.6-3.6 2.8-.9 1.7-1.1 3.7-1.1 5.5 0 1.8.3 3.8 1.1 5.5.6 1.2 1.7 2.5 3.6 2.6 1.9.1 1.9-2.1 0-2.2"/></g><g fill="#7d8b91"><path d="m8.7 25.2h42.9v2.8h-42.9z"/><path d="m8.7 33.6h42.9v2.8h-42.9z"/><path d="m8.7 41.9h42.9v2.8h-42.9z"/><path d="m30.1 50.3h16.6v2.8h-16.6z"/></g><path d="m57.1 35c0 12.9-9.6 27-22.8 27 0 0 5.4-3 5.4-13.9 15.1 0 17.4-13.1 17.4-13.1" fill="#d7dadb"/></svg>
</svg>